<?xml version="1.0" encoding="UTF-8"?>
<svg id="logo_final2" data-name="logo final2" xmlns="http://www.w3.org/2000/svg" viewBox="0 0 58.79 60.76">
  <defs>
    <style>
      .cls-1 {
        fill: #878787;
        fill-rule: evenodd;
        stroke-width: 0px;
      }
    </style>
  </defs>
  <path class="cls-1" d="m38.82,38.09c-1.67,2.99-4.28,5.22-7.82,6.7,4.82,3.16,8.8.98,11.1-2.99-.51,1.29-1.17,2.75-2.41,4.17,3.45-.36,6.07-2.14,7.88-5.34,0,.78-.47,2.1-1.43,3.97,3.92-3.06,5.75-7.57,5.47-13.54,0-.04-.01-.07-.02-.11-.73,3.24-1.19,6.63-3.99,8.47,1.61-4.26,1.85-8.23.27-16.12,1.45,7.97-.49,14.98-5.81,21.04.98-1.43,1.98-4.47,2.99-9.11-1.09,3.64-2.62,5.11-5.05,6.59,3.5-12.11,1.75-23.33-4.12-27.09,1.83,1.82,3.19,5.56,3.88,9.81-.62-.03-2.12-.2-3.44-1.32-.53-.45-.89-.92-1.13-1.32,1.01.49,2.72.41,3.4-.03-1.98.08-10.84-4.83-13.03-8,1.38,1.52,7.87,5.46,12.84,6.18-4.34-1.58-6.83-3.26-7.98-5.8,1.03,2.06,3.4,3.14,5.27,3.49-5.14-3.1-5.29-6.13-5.4-7.6.73,3.66,4.61,4.75,5.89,6.09-.89-1.31-2.01-4.44-1.86-4.36,4.27,2.02,7.22,6.72,8.22,13.18-.15-5.29-1.51-12.3-9.71-15.29h0c6.52,1.59,8.72,6.63,9.11,7.12-.19-1.53-.95-3.18-1.93-4.63,5.37,4.48,7.02,14.5,2.1,26.28,4.28-7.73,5.69-13.47,4.76-19.03,1.81,3.59,3.03,8.08,3.48,13.3.38-16.24-8.67-29.18-17.01-24.87-.42.04-.83.08-1.23.13-1.39.11-2.67.38-3.85.76l-.05.02c-.05.02-.1.03-.15.05h-.04c-3.16,1.08-5.51,2.89-6.99,4.37,1.54-.95,3.64-2.2,5.09-2.49-5.95,3.99-11.75,11.38-12.25,17.21,1.27-2.96,2.29-5.17,3.84-6.38-3.62,7.11-3.99,13.75-.85,23.31-.32-3.86-.28-4.92-.13-6.58,1.16,5.49,3.16,9.77,5.99,12.83-2.59-.93-4.63-2.44-5.31-3.43.39,1.55,1.09,2.14,2.83,3.43-3.17-1.31-4.03-2.88-4.95-3.73,1.37,2.77,3.14,4.91,5.22,6.02-.53-.64-.9-1.25-1.11-1.82,2.01,1.43,4.33,2.11,6.97,2.02-.97-.73-1.63-1.36-2.06-1.91-.51-.64-1.18-1.55-1.88-2.68-.45-.73-2.01-3.34-3.25-7.68-2.19-7.65-1.27-13.36-.95-14.63.09-.33.55-1.98.99-4.33.09-.48.18-.95.27-1.43.57-2.69,1.66-5.5,4.54-6.77,2.66,3.38,6.75,6.01,10.96,6.93-2.28-.19-3.93-.49-4.95-.91,2.47,1.91,4.6,3.43,6.54,3.82-.92.1-1.9-.15-2.67-.31.23.19.61.47,1.13.72,1.53.73,2.53.31,3.65.98.66.4.97.95,1.29,1.5,1.85,3.19.41,8.12,0,9.51-.47,1.61-1.36,4.01-3.13,6.66,1.01-1.73,1.66-3.4,1.95-5Zm-5.63-30.29c-11.62-3.63-17.85,4.77-20.32,12.56-1.28,4.04-1.53,8.58-.87,12.92-1.08,6.09-.19,13.5,7.15,14.74-5.35-1.75-6.29-7.16-6.09-10.16.62,1.97,1.44,3.83,2.45,5.5-5.88-15.75-.94-36.85,17.68-35.56"/>
</svg>